<mxfile host="app.diagrams.net" modified="2024-03-13T11:31:57.671Z" agent="Mozilla/5.0 (Windows NT 10.0; Win64; x64) AppleWebKit/537.36 (KHTML, like Gecko) Chrome/122.0.0.0 Safari/537.36 Edg/122.0.0.0" etag="8k3gN6rZCU8B2lOUuQLp" version="24.0.5" type="github">
  <diagram name="第 1 页" id="nTcoCU8JCfdRvD58QICH">
    <mxGraphModel dx="1379" dy="788" grid="0" gridSize="10" guides="1" tooltips="1" connect="1" arrows="1" fold="1" page="1" pageScale="1" pageWidth="2827" pageHeight="1169" math="0" shadow="0">
      <root>
        <mxCell id="0" />
        <mxCell id="1" parent="0" />
        <mxCell id="4oWYa5ZDLCP4WArpB5ea-122" value="" style="rounded=0;whiteSpace=wrap;html=1;" vertex="1" parent="1">
          <mxGeometry x="588" y="700" width="110" height="282" as="geometry" />
        </mxCell>
        <mxCell id="4oWYa5ZDLCP4WArpB5ea-135" value="" style="ellipse;whiteSpace=wrap;html=1;strokeColor=#FF0080;" vertex="1" parent="1">
          <mxGeometry x="599" y="897" width="86" height="80" as="geometry" />
        </mxCell>
        <mxCell id="4oWYa5ZDLCP4WArpB5ea-40" value="" style="rounded=0;whiteSpace=wrap;html=1;" vertex="1" parent="1">
          <mxGeometry x="578" y="100" width="110" height="278" as="geometry" />
        </mxCell>
        <mxCell id="4oWYa5ZDLCP4WArpB5ea-39" value="" style="rounded=0;whiteSpace=wrap;html=1;" vertex="1" parent="1">
          <mxGeometry x="444" y="102" width="110" height="207" as="geometry" />
        </mxCell>
        <mxCell id="4oWYa5ZDLCP4WArpB5ea-21" style="rounded=0;orthogonalLoop=1;jettySize=auto;html=1;exitX=1;exitY=0.5;exitDx=0;exitDy=0;strokeColor=#FF3333;" edge="1" parent="1" source="4oWYa5ZDLCP4WArpB5ea-1" target="4oWYa5ZDLCP4WArpB5ea-2">
          <mxGeometry relative="1" as="geometry" />
        </mxCell>
        <mxCell id="4oWYa5ZDLCP4WArpB5ea-1" value="顾客1" style="ellipse;whiteSpace=wrap;html=1;aspect=fixed;" vertex="1" parent="1">
          <mxGeometry x="74" y="33" width="50" height="50" as="geometry" />
        </mxCell>
        <mxCell id="4oWYa5ZDLCP4WArpB5ea-22" style="edgeStyle=none;rounded=0;orthogonalLoop=1;jettySize=auto;html=1;exitX=1;exitY=0.25;exitDx=0;exitDy=0;strokeColor=#3333FF;" edge="1" parent="1" source="4oWYa5ZDLCP4WArpB5ea-2" target="4oWYa5ZDLCP4WArpB5ea-3">
          <mxGeometry relative="1" as="geometry" />
        </mxCell>
        <mxCell id="4oWYa5ZDLCP4WArpB5ea-2" value="仓库A" style="shape=hexagon;perimeter=hexagonPerimeter2;whiteSpace=wrap;html=1;fixedSize=1;" vertex="1" parent="1">
          <mxGeometry x="154" y="83" width="90" height="80" as="geometry" />
        </mxCell>
        <mxCell id="4oWYa5ZDLCP4WArpB5ea-23" style="edgeStyle=none;rounded=0;orthogonalLoop=1;jettySize=auto;html=1;exitX=1;exitY=1;exitDx=0;exitDy=0;entryX=0;entryY=0;entryDx=0;entryDy=0;strokeColor=#3333FF;" edge="1" parent="1" source="4oWYa5ZDLCP4WArpB5ea-3" target="4oWYa5ZDLCP4WArpB5ea-4">
          <mxGeometry relative="1" as="geometry" />
        </mxCell>
        <mxCell id="4oWYa5ZDLCP4WArpB5ea-3" value="顾客2" style="ellipse;whiteSpace=wrap;html=1;aspect=fixed;" vertex="1" parent="1">
          <mxGeometry x="259" y="15" width="50" height="50" as="geometry" />
        </mxCell>
        <mxCell id="4oWYa5ZDLCP4WArpB5ea-24" style="edgeStyle=none;rounded=0;orthogonalLoop=1;jettySize=auto;html=1;exitX=0.5;exitY=1;exitDx=0;exitDy=0;strokeColor=#3333FF;" edge="1" parent="1" source="4oWYa5ZDLCP4WArpB5ea-4" target="4oWYa5ZDLCP4WArpB5ea-11">
          <mxGeometry relative="1" as="geometry" />
        </mxCell>
        <mxCell id="4oWYa5ZDLCP4WArpB5ea-4" value="顾客4" style="ellipse;whiteSpace=wrap;html=1;aspect=fixed;" vertex="1" parent="1">
          <mxGeometry x="294" y="68" width="50" height="50" as="geometry" />
        </mxCell>
        <mxCell id="4oWYa5ZDLCP4WArpB5ea-20" style="rounded=0;orthogonalLoop=1;jettySize=auto;html=1;exitX=0.5;exitY=0;exitDx=0;exitDy=0;strokeColor=#FF3333;" edge="1" parent="1" source="4oWYa5ZDLCP4WArpB5ea-5" target="4oWYa5ZDLCP4WArpB5ea-1">
          <mxGeometry relative="1" as="geometry" />
        </mxCell>
        <mxCell id="4oWYa5ZDLCP4WArpB5ea-5" value="顾客3" style="ellipse;whiteSpace=wrap;html=1;aspect=fixed;" vertex="1" parent="1">
          <mxGeometry x="55" y="110" width="50" height="50" as="geometry" />
        </mxCell>
        <mxCell id="4oWYa5ZDLCP4WArpB5ea-6" value="顾客10" style="ellipse;whiteSpace=wrap;html=1;aspect=fixed;" vertex="1" parent="1">
          <mxGeometry x="268" y="368" width="50" height="50" as="geometry" />
        </mxCell>
        <mxCell id="4oWYa5ZDLCP4WArpB5ea-27" style="edgeStyle=none;rounded=0;orthogonalLoop=1;jettySize=auto;html=1;exitX=0;exitY=0.5;exitDx=0;exitDy=0;strokeColor=#FF0000;" edge="1" parent="1" source="4oWYa5ZDLCP4WArpB5ea-7" target="4oWYa5ZDLCP4WArpB5ea-8">
          <mxGeometry relative="1" as="geometry" />
        </mxCell>
        <mxCell id="4oWYa5ZDLCP4WArpB5ea-7" value="顾客6" style="ellipse;whiteSpace=wrap;html=1;aspect=fixed;" vertex="1" parent="1">
          <mxGeometry x="158" y="228" width="50" height="50" as="geometry" />
        </mxCell>
        <mxCell id="4oWYa5ZDLCP4WArpB5ea-28" style="edgeStyle=none;rounded=0;orthogonalLoop=1;jettySize=auto;html=1;exitX=0;exitY=1;exitDx=0;exitDy=0;strokeColor=#FF0000;" edge="1" parent="1" source="4oWYa5ZDLCP4WArpB5ea-8" target="4oWYa5ZDLCP4WArpB5ea-9">
          <mxGeometry relative="1" as="geometry" />
        </mxCell>
        <mxCell id="4oWYa5ZDLCP4WArpB5ea-8" value="顾客8" style="ellipse;whiteSpace=wrap;html=1;aspect=fixed;" vertex="1" parent="1">
          <mxGeometry x="74" y="252" width="50" height="50" as="geometry" />
        </mxCell>
        <mxCell id="4oWYa5ZDLCP4WArpB5ea-29" style="edgeStyle=none;rounded=0;orthogonalLoop=1;jettySize=auto;html=1;exitX=0.5;exitY=1;exitDx=0;exitDy=0;strokeColor=#FF0000;" edge="1" parent="1" source="4oWYa5ZDLCP4WArpB5ea-9" target="4oWYa5ZDLCP4WArpB5ea-10">
          <mxGeometry relative="1" as="geometry" />
        </mxCell>
        <mxCell id="4oWYa5ZDLCP4WArpB5ea-9" value="顾客9" style="ellipse;whiteSpace=wrap;html=1;aspect=fixed;" vertex="1" parent="1">
          <mxGeometry x="49" y="309" width="50" height="50" as="geometry" />
        </mxCell>
        <mxCell id="4oWYa5ZDLCP4WArpB5ea-10" value="顾客7" style="ellipse;whiteSpace=wrap;html=1;aspect=fixed;" vertex="1" parent="1">
          <mxGeometry x="88" y="365" width="50" height="50" as="geometry" />
        </mxCell>
        <mxCell id="4oWYa5ZDLCP4WArpB5ea-25" style="edgeStyle=none;rounded=0;orthogonalLoop=1;jettySize=auto;html=1;exitX=0;exitY=0.5;exitDx=0;exitDy=0;entryX=1;entryY=0.75;entryDx=0;entryDy=0;strokeColor=#3333FF;" edge="1" parent="1" source="4oWYa5ZDLCP4WArpB5ea-11" target="4oWYa5ZDLCP4WArpB5ea-2">
          <mxGeometry relative="1" as="geometry" />
        </mxCell>
        <mxCell id="4oWYa5ZDLCP4WArpB5ea-11" value="顾客5" style="ellipse;whiteSpace=wrap;html=1;aspect=fixed;" vertex="1" parent="1">
          <mxGeometry x="283" y="149" width="50" height="50" as="geometry" />
        </mxCell>
        <mxCell id="4oWYa5ZDLCP4WArpB5ea-35" style="edgeStyle=none;rounded=0;orthogonalLoop=1;jettySize=auto;html=1;exitX=0;exitY=1;exitDx=0;exitDy=0;strokeColor=#00FF00;" edge="1" parent="1" source="4oWYa5ZDLCP4WArpB5ea-16" target="4oWYa5ZDLCP4WArpB5ea-18">
          <mxGeometry relative="1" as="geometry" />
        </mxCell>
        <mxCell id="4oWYa5ZDLCP4WArpB5ea-16" value="顾客12" style="ellipse;whiteSpace=wrap;html=1;aspect=fixed;" vertex="1" parent="1">
          <mxGeometry x="312" y="273" width="50" height="50" as="geometry" />
        </mxCell>
        <mxCell id="4oWYa5ZDLCP4WArpB5ea-17" value="顾客11" style="ellipse;whiteSpace=wrap;html=1;aspect=fixed;" vertex="1" parent="1">
          <mxGeometry x="259" y="231" width="50" height="50" as="geometry" />
        </mxCell>
        <mxCell id="4oWYa5ZDLCP4WArpB5ea-31" style="edgeStyle=none;rounded=0;orthogonalLoop=1;jettySize=auto;html=1;exitX=1;exitY=0.75;exitDx=0;exitDy=0;entryX=0;entryY=0.5;entryDx=0;entryDy=0;strokeColor=#0000FF;" edge="1" parent="1" source="4oWYa5ZDLCP4WArpB5ea-18" target="4oWYa5ZDLCP4WArpB5ea-6">
          <mxGeometry relative="1" as="geometry" />
        </mxCell>
        <mxCell id="4oWYa5ZDLCP4WArpB5ea-33" style="edgeStyle=none;rounded=0;orthogonalLoop=1;jettySize=auto;html=1;exitX=0.625;exitY=0;exitDx=0;exitDy=0;entryX=0;entryY=0.5;entryDx=0;entryDy=0;strokeColor=#00FF00;" edge="1" parent="1" source="4oWYa5ZDLCP4WArpB5ea-18" target="4oWYa5ZDLCP4WArpB5ea-17">
          <mxGeometry relative="1" as="geometry" />
        </mxCell>
        <mxCell id="4oWYa5ZDLCP4WArpB5ea-18" value="仓库B" style="shape=hexagon;perimeter=hexagonPerimeter2;whiteSpace=wrap;html=1;fixedSize=1;" vertex="1" parent="1">
          <mxGeometry x="154" y="300" width="90" height="80" as="geometry" />
        </mxCell>
        <mxCell id="4oWYa5ZDLCP4WArpB5ea-19" style="rounded=0;orthogonalLoop=1;jettySize=auto;html=1;exitX=0;exitY=0.75;exitDx=0;exitDy=0;entryX=0.94;entryY=0.66;entryDx=0;entryDy=0;entryPerimeter=0;strokeColor=#FF3333;" edge="1" parent="1" source="4oWYa5ZDLCP4WArpB5ea-2" target="4oWYa5ZDLCP4WArpB5ea-5">
          <mxGeometry relative="1" as="geometry" />
        </mxCell>
        <mxCell id="4oWYa5ZDLCP4WArpB5ea-26" style="edgeStyle=none;rounded=0;orthogonalLoop=1;jettySize=auto;html=1;exitX=0.5;exitY=0;exitDx=0;exitDy=0;entryX=0.74;entryY=0.96;entryDx=0;entryDy=0;entryPerimeter=0;strokeColor=#FF0000;" edge="1" parent="1" source="4oWYa5ZDLCP4WArpB5ea-18" target="4oWYa5ZDLCP4WArpB5ea-7">
          <mxGeometry relative="1" as="geometry" />
        </mxCell>
        <mxCell id="4oWYa5ZDLCP4WArpB5ea-30" style="edgeStyle=none;rounded=0;orthogonalLoop=1;jettySize=auto;html=1;exitX=1;exitY=0.5;exitDx=0;exitDy=0;entryX=0.089;entryY=0.8;entryDx=0;entryDy=0;entryPerimeter=0;strokeColor=#FF0000;" edge="1" parent="1" source="4oWYa5ZDLCP4WArpB5ea-10" target="4oWYa5ZDLCP4WArpB5ea-18">
          <mxGeometry relative="1" as="geometry" />
        </mxCell>
        <mxCell id="4oWYa5ZDLCP4WArpB5ea-32" style="edgeStyle=none;rounded=0;orthogonalLoop=1;jettySize=auto;html=1;exitX=0.5;exitY=0;exitDx=0;exitDy=0;entryX=1;entryY=0.438;entryDx=0;entryDy=0;entryPerimeter=0;strokeColor=#0000FF;" edge="1" parent="1" source="4oWYa5ZDLCP4WArpB5ea-6" target="4oWYa5ZDLCP4WArpB5ea-18">
          <mxGeometry relative="1" as="geometry" />
        </mxCell>
        <mxCell id="4oWYa5ZDLCP4WArpB5ea-34" style="edgeStyle=none;rounded=0;orthogonalLoop=1;jettySize=auto;html=1;exitX=1;exitY=1;exitDx=0;exitDy=0;entryX=0.06;entryY=0.32;entryDx=0;entryDy=0;entryPerimeter=0;strokeColor=#00FF00;" edge="1" parent="1" source="4oWYa5ZDLCP4WArpB5ea-17" target="4oWYa5ZDLCP4WArpB5ea-16">
          <mxGeometry relative="1" as="geometry" />
        </mxCell>
        <mxCell id="4oWYa5ZDLCP4WArpB5ea-36" value="染色体（一个个体）" style="rounded=1;whiteSpace=wrap;html=1;" vertex="1" parent="1">
          <mxGeometry x="438" y="36" width="256" height="60" as="geometry" />
        </mxCell>
        <mxCell id="4oWYa5ZDLCP4WArpB5ea-37" value="仓库A" style="rounded=0;whiteSpace=wrap;html=1;" vertex="1" parent="1">
          <mxGeometry x="459" y="109" width="80" height="33" as="geometry" />
        </mxCell>
        <mxCell id="4oWYa5ZDLCP4WArpB5ea-38" value="仓库B" style="rounded=0;whiteSpace=wrap;html=1;" vertex="1" parent="1">
          <mxGeometry x="593" y="109" width="80" height="33" as="geometry" />
        </mxCell>
        <mxCell id="4oWYa5ZDLCP4WArpB5ea-41" value="1&lt;div&gt;3&lt;/div&gt;" style="rounded=0;whiteSpace=wrap;html=1;strokeColor=#FF3333;" vertex="1" parent="1">
          <mxGeometry x="479.5" y="155" width="39" height="60" as="geometry" />
        </mxCell>
        <mxCell id="4oWYa5ZDLCP4WArpB5ea-44" value="2&lt;div&gt;4&lt;/div&gt;&lt;div&gt;5&lt;/div&gt;" style="rounded=0;whiteSpace=wrap;html=1;strokeColor=#3333FF;" vertex="1" parent="1">
          <mxGeometry x="479.5" y="232" width="39" height="60" as="geometry" />
        </mxCell>
        <mxCell id="4oWYa5ZDLCP4WArpB5ea-45" value="6&lt;div&gt;8&lt;/div&gt;&lt;div&gt;9&lt;/div&gt;&lt;div&gt;7&lt;/div&gt;" style="rounded=0;whiteSpace=wrap;html=1;strokeColor=#FF3333;" vertex="1" parent="1">
          <mxGeometry x="613.5" y="155" width="39" height="87" as="geometry" />
        </mxCell>
        <mxCell id="4oWYa5ZDLCP4WArpB5ea-46" value="10" style="rounded=0;whiteSpace=wrap;html=1;strokeColor=#0000FF;" vertex="1" parent="1">
          <mxGeometry x="613.5" y="255" width="39" height="31" as="geometry" />
        </mxCell>
        <mxCell id="4oWYa5ZDLCP4WArpB5ea-47" value="11&lt;div&gt;12&lt;/div&gt;" style="rounded=0;whiteSpace=wrap;html=1;strokeColor=#00FF00;" vertex="1" parent="1">
          <mxGeometry x="613.5" y="300" width="39" height="60" as="geometry" />
        </mxCell>
        <mxCell id="4oWYa5ZDLCP4WArpB5ea-110" value="" style="endArrow=none;html=1;rounded=0;" edge="1" parent="1">
          <mxGeometry width="50" height="50" relative="1" as="geometry">
            <mxPoint x="488" y="1086" as="sourcePoint" />
            <mxPoint x="488" y="547" as="targetPoint" />
          </mxGeometry>
        </mxCell>
        <mxCell id="4oWYa5ZDLCP4WArpB5ea-111" value="" style="rounded=0;whiteSpace=wrap;html=1;" vertex="1" parent="1">
          <mxGeometry x="320" y="698" width="110" height="197" as="geometry" />
        </mxCell>
        <mxCell id="4oWYa5ZDLCP4WArpB5ea-112" value="" style="rounded=0;whiteSpace=wrap;html=1;" vertex="1" parent="1">
          <mxGeometry x="186" y="700" width="110" height="207" as="geometry" />
        </mxCell>
        <mxCell id="4oWYa5ZDLCP4WArpB5ea-113" value="染色体1" style="rounded=1;whiteSpace=wrap;html=1;" vertex="1" parent="1">
          <mxGeometry x="180" y="634" width="256" height="60" as="geometry" />
        </mxCell>
        <mxCell id="4oWYa5ZDLCP4WArpB5ea-114" value="仓库A" style="rounded=0;whiteSpace=wrap;html=1;" vertex="1" parent="1">
          <mxGeometry x="201" y="707" width="80" height="33" as="geometry" />
        </mxCell>
        <mxCell id="4oWYa5ZDLCP4WArpB5ea-115" value="仓库B" style="rounded=0;whiteSpace=wrap;html=1;" vertex="1" parent="1">
          <mxGeometry x="335" y="707" width="80" height="33" as="geometry" />
        </mxCell>
        <mxCell id="4oWYa5ZDLCP4WArpB5ea-116" value="2&lt;div&gt;3&lt;/div&gt;&lt;div&gt;5&lt;/div&gt;" style="rounded=0;whiteSpace=wrap;html=1;strokeColor=#FF3333;" vertex="1" parent="1">
          <mxGeometry x="221.5" y="753" width="39" height="60" as="geometry" />
        </mxCell>
        <mxCell id="4oWYa5ZDLCP4WArpB5ea-132" style="edgeStyle=none;rounded=0;orthogonalLoop=1;jettySize=auto;html=1;exitX=0;exitY=0.5;exitDx=0;exitDy=0;strokeColor=#FF0080;" edge="1" parent="1" source="4oWYa5ZDLCP4WArpB5ea-131">
          <mxGeometry relative="1" as="geometry">
            <mxPoint x="134" y="860" as="targetPoint" />
          </mxGeometry>
        </mxCell>
        <mxCell id="4oWYa5ZDLCP4WArpB5ea-131" value="" style="ellipse;whiteSpace=wrap;html=1;strokeColor=#FF0080;" vertex="1" parent="1">
          <mxGeometry x="197" y="820" width="86" height="80" as="geometry" />
        </mxCell>
        <mxCell id="4oWYa5ZDLCP4WArpB5ea-117" value="1&lt;div&gt;8&lt;/div&gt;" style="rounded=0;whiteSpace=wrap;html=1;strokeColor=#3333FF;" vertex="1" parent="1">
          <mxGeometry x="221.5" y="830" width="39" height="60" as="geometry" />
        </mxCell>
        <mxCell id="4oWYa5ZDLCP4WArpB5ea-118" value="7&lt;div&gt;4&lt;/div&gt;&lt;div&gt;9&lt;/div&gt;" style="rounded=0;whiteSpace=wrap;html=1;strokeColor=#FF3333;" vertex="1" parent="1">
          <mxGeometry x="355.5" y="753" width="39" height="65" as="geometry" />
        </mxCell>
        <mxCell id="4oWYa5ZDLCP4WArpB5ea-119" value="6" style="rounded=0;whiteSpace=wrap;html=1;strokeColor=#0000FF;" vertex="1" parent="1">
          <mxGeometry x="355.5" y="838" width="39" height="31" as="geometry" />
        </mxCell>
        <mxCell id="4oWYa5ZDLCP4WArpB5ea-120" value="6&lt;div&gt;7&lt;/div&gt;" style="rounded=0;whiteSpace=wrap;html=1;strokeColor=#00FF00;" vertex="1" parent="1">
          <mxGeometry x="623.5" y="907" width="39" height="60" as="geometry" />
        </mxCell>
        <mxCell id="4oWYa5ZDLCP4WArpB5ea-121" value="" style="rounded=0;whiteSpace=wrap;html=1;" vertex="1" parent="1">
          <mxGeometry x="722" y="698" width="110" height="178" as="geometry" />
        </mxCell>
        <mxCell id="4oWYa5ZDLCP4WArpB5ea-123" value="染色体2" style="rounded=1;whiteSpace=wrap;html=1;" vertex="1" parent="1">
          <mxGeometry x="582" y="634" width="256" height="60" as="geometry" />
        </mxCell>
        <mxCell id="4oWYa5ZDLCP4WArpB5ea-124" value="仓库A" style="rounded=0;whiteSpace=wrap;html=1;" vertex="1" parent="1">
          <mxGeometry x="603" y="707" width="80" height="33" as="geometry" />
        </mxCell>
        <mxCell id="4oWYa5ZDLCP4WArpB5ea-125" value="仓库B" style="rounded=0;whiteSpace=wrap;html=1;" vertex="1" parent="1">
          <mxGeometry x="737" y="707" width="80" height="33" as="geometry" />
        </mxCell>
        <mxCell id="4oWYa5ZDLCP4WArpB5ea-126" value="5&lt;div&gt;2&lt;/div&gt;" style="rounded=0;whiteSpace=wrap;html=1;strokeColor=#FF3333;" vertex="1" parent="1">
          <mxGeometry x="623.5" y="753" width="39" height="60" as="geometry" />
        </mxCell>
        <mxCell id="4oWYa5ZDLCP4WArpB5ea-127" value="1&lt;div&gt;3&lt;/div&gt;" style="rounded=0;whiteSpace=wrap;html=1;strokeColor=#3333FF;" vertex="1" parent="1">
          <mxGeometry x="623.5" y="830" width="39" height="60" as="geometry" />
        </mxCell>
        <mxCell id="4oWYa5ZDLCP4WArpB5ea-128" value="4" style="rounded=0;whiteSpace=wrap;html=1;strokeColor=#FF3333;" vertex="1" parent="1">
          <mxGeometry x="757.5" y="753" width="39" height="29" as="geometry" />
        </mxCell>
        <mxCell id="4oWYa5ZDLCP4WArpB5ea-129" value="8&lt;div&gt;9&lt;/div&gt;" style="rounded=0;whiteSpace=wrap;html=1;strokeColor=#0000FF;" vertex="1" parent="1">
          <mxGeometry x="757.5" y="801" width="39" height="57" as="geometry" />
        </mxCell>
        <mxCell id="4oWYa5ZDLCP4WArpB5ea-133" value="r1" style="text;html=1;align=center;verticalAlign=middle;whiteSpace=wrap;rounded=0;strokeColor=#FF0080;" vertex="1" parent="1">
          <mxGeometry x="92" y="846" width="60" height="30" as="geometry" />
        </mxCell>
        <mxCell id="4oWYa5ZDLCP4WArpB5ea-134" style="edgeStyle=none;rounded=0;orthogonalLoop=1;jettySize=auto;html=1;exitX=0;exitY=0.5;exitDx=0;exitDy=0;strokeColor=#FF0080;" edge="1" parent="1" source="4oWYa5ZDLCP4WArpB5ea-135">
          <mxGeometry relative="1" as="geometry">
            <mxPoint x="536" y="937" as="targetPoint" />
          </mxGeometry>
        </mxCell>
        <mxCell id="4oWYa5ZDLCP4WArpB5ea-136" value="r2" style="text;html=1;align=center;verticalAlign=middle;whiteSpace=wrap;rounded=0;strokeColor=#FF0080;" vertex="1" parent="1">
          <mxGeometry x="494" y="923" width="60" height="30" as="geometry" />
        </mxCell>
        <mxCell id="4oWYa5ZDLCP4WArpB5ea-137" value="" style="rounded=0;whiteSpace=wrap;html=1;" vertex="1" parent="1">
          <mxGeometry x="1507" y="704" width="110" height="264" as="geometry" />
        </mxCell>
        <mxCell id="4oWYa5ZDLCP4WArpB5ea-139" value="" style="endArrow=none;html=1;rounded=0;" edge="1" parent="1">
          <mxGeometry width="50" height="50" relative="1" as="geometry">
            <mxPoint x="1407" y="1090" as="sourcePoint" />
            <mxPoint x="1407" y="551" as="targetPoint" />
          </mxGeometry>
        </mxCell>
        <mxCell id="4oWYa5ZDLCP4WArpB5ea-140" value="" style="rounded=0;whiteSpace=wrap;html=1;" vertex="1" parent="1">
          <mxGeometry x="1239" y="703" width="110" height="136" as="geometry" />
        </mxCell>
        <mxCell id="4oWYa5ZDLCP4WArpB5ea-141" value="" style="rounded=0;whiteSpace=wrap;html=1;" vertex="1" parent="1">
          <mxGeometry x="1105" y="705" width="110" height="207" as="geometry" />
        </mxCell>
        <mxCell id="4oWYa5ZDLCP4WArpB5ea-142" value="染色体1" style="rounded=1;whiteSpace=wrap;html=1;" vertex="1" parent="1">
          <mxGeometry x="1099" y="639" width="256" height="60" as="geometry" />
        </mxCell>
        <mxCell id="4oWYa5ZDLCP4WArpB5ea-143" value="仓库A" style="rounded=0;whiteSpace=wrap;html=1;" vertex="1" parent="1">
          <mxGeometry x="1120" y="712" width="80" height="33" as="geometry" />
        </mxCell>
        <mxCell id="4oWYa5ZDLCP4WArpB5ea-144" value="仓库B" style="rounded=0;whiteSpace=wrap;html=1;" vertex="1" parent="1">
          <mxGeometry x="1254" y="712" width="80" height="33" as="geometry" />
        </mxCell>
        <mxCell id="4oWYa5ZDLCP4WArpB5ea-145" value="2&lt;div&gt;3&lt;/div&gt;&lt;div&gt;5&lt;/div&gt;" style="rounded=0;whiteSpace=wrap;html=1;strokeColor=#FF3333;" vertex="1" parent="1">
          <mxGeometry x="1140.5" y="758" width="39" height="60" as="geometry" />
        </mxCell>
        <mxCell id="4oWYa5ZDLCP4WArpB5ea-148" value="1&lt;div&gt;8&lt;/div&gt;" style="rounded=0;whiteSpace=wrap;html=1;strokeColor=#3333FF;" vertex="1" parent="1">
          <mxGeometry x="1140.5" y="835" width="39" height="60" as="geometry" />
        </mxCell>
        <mxCell id="4oWYa5ZDLCP4WArpB5ea-149" value="&lt;span style=&quot;background-color: initial;&quot;&gt;4&lt;/span&gt;&lt;div&gt;9&lt;/div&gt;" style="rounded=0;whiteSpace=wrap;html=1;strokeColor=#FF3333;" vertex="1" parent="1">
          <mxGeometry x="1274.5" y="758" width="39" height="56" as="geometry" />
        </mxCell>
        <mxCell id="4oWYa5ZDLCP4WArpB5ea-151" value="6&lt;div&gt;7&lt;/div&gt;" style="rounded=0;whiteSpace=wrap;html=1;strokeColor=#00FF00;" vertex="1" parent="1">
          <mxGeometry x="1542.5" y="887" width="39" height="60" as="geometry" />
        </mxCell>
        <mxCell id="4oWYa5ZDLCP4WArpB5ea-152" value="" style="rounded=0;whiteSpace=wrap;html=1;" vertex="1" parent="1">
          <mxGeometry x="1641" y="702" width="110" height="159" as="geometry" />
        </mxCell>
        <mxCell id="4oWYa5ZDLCP4WArpB5ea-153" value="染色体2" style="rounded=1;whiteSpace=wrap;html=1;" vertex="1" parent="1">
          <mxGeometry x="1501" y="638" width="256" height="60" as="geometry" />
        </mxCell>
        <mxCell id="4oWYa5ZDLCP4WArpB5ea-154" value="仓库A" style="rounded=0;whiteSpace=wrap;html=1;" vertex="1" parent="1">
          <mxGeometry x="1522" y="711" width="80" height="33" as="geometry" />
        </mxCell>
        <mxCell id="4oWYa5ZDLCP4WArpB5ea-155" value="仓库B" style="rounded=0;whiteSpace=wrap;html=1;" vertex="1" parent="1">
          <mxGeometry x="1656" y="711" width="80" height="33" as="geometry" />
        </mxCell>
        <mxCell id="4oWYa5ZDLCP4WArpB5ea-156" value="5&lt;div&gt;2&lt;/div&gt;" style="rounded=0;whiteSpace=wrap;html=1;strokeColor=#FF3333;" vertex="1" parent="1">
          <mxGeometry x="1542.5" y="757" width="39" height="60" as="geometry" />
        </mxCell>
        <mxCell id="4oWYa5ZDLCP4WArpB5ea-157" value="&lt;div&gt;3&lt;/div&gt;" style="rounded=0;whiteSpace=wrap;html=1;strokeColor=#3333FF;" vertex="1" parent="1">
          <mxGeometry x="1542.5" y="834" width="39" height="36" as="geometry" />
        </mxCell>
        <mxCell id="4oWYa5ZDLCP4WArpB5ea-158" value="4" style="rounded=0;whiteSpace=wrap;html=1;strokeColor=#FF3333;" vertex="1" parent="1">
          <mxGeometry x="1676.5" y="757" width="39" height="29" as="geometry" />
        </mxCell>
        <mxCell id="4oWYa5ZDLCP4WArpB5ea-159" value="&lt;div&gt;9&lt;/div&gt;" style="rounded=0;whiteSpace=wrap;html=1;strokeColor=#0000FF;" vertex="1" parent="1">
          <mxGeometry x="1676.5" y="805" width="39" height="38" as="geometry" />
        </mxCell>
        <mxCell id="4oWYa5ZDLCP4WArpB5ea-160" value="删除6、7" style="text;html=1;align=center;verticalAlign=middle;whiteSpace=wrap;rounded=0;strokeColor=#FF0080;" vertex="1" parent="1">
          <mxGeometry x="1024" y="709.5" width="60" height="30" as="geometry" />
        </mxCell>
        <mxCell id="4oWYa5ZDLCP4WArpB5ea-162" value="删除1、8" style="text;html=1;align=center;verticalAlign=middle;whiteSpace=wrap;rounded=0;strokeColor=#FF0080;" vertex="1" parent="1">
          <mxGeometry x="1434" y="718" width="60" height="30" as="geometry" />
        </mxCell>
        <mxCell id="4oWYa5ZDLCP4WArpB5ea-164" value="" style="rounded=0;whiteSpace=wrap;html=1;" vertex="1" parent="1">
          <mxGeometry x="1434" y="165" width="110" height="285" as="geometry" />
        </mxCell>
        <mxCell id="4oWYa5ZDLCP4WArpB5ea-165" value="" style="endArrow=none;html=1;rounded=0;" edge="1" parent="1">
          <mxGeometry width="50" height="50" relative="1" as="geometry">
            <mxPoint x="1334" y="551" as="sourcePoint" />
            <mxPoint x="1334" y="12" as="targetPoint" />
          </mxGeometry>
        </mxCell>
        <mxCell id="4oWYa5ZDLCP4WArpB5ea-166" value="" style="rounded=0;whiteSpace=wrap;html=1;" vertex="1" parent="1">
          <mxGeometry x="1166" y="164" width="110" height="136" as="geometry" />
        </mxCell>
        <mxCell id="4oWYa5ZDLCP4WArpB5ea-167" value="" style="rounded=0;whiteSpace=wrap;html=1;" vertex="1" parent="1">
          <mxGeometry x="1032" y="166" width="110" height="267" as="geometry" />
        </mxCell>
        <mxCell id="4oWYa5ZDLCP4WArpB5ea-168" value="染色体1" style="rounded=1;whiteSpace=wrap;html=1;" vertex="1" parent="1">
          <mxGeometry x="1026" y="100" width="256" height="60" as="geometry" />
        </mxCell>
        <mxCell id="4oWYa5ZDLCP4WArpB5ea-169" value="仓库A" style="rounded=0;whiteSpace=wrap;html=1;" vertex="1" parent="1">
          <mxGeometry x="1047" y="173" width="80" height="33" as="geometry" />
        </mxCell>
        <mxCell id="4oWYa5ZDLCP4WArpB5ea-170" value="仓库B" style="rounded=0;whiteSpace=wrap;html=1;" vertex="1" parent="1">
          <mxGeometry x="1181" y="173" width="80" height="33" as="geometry" />
        </mxCell>
        <mxCell id="4oWYa5ZDLCP4WArpB5ea-171" value="2&lt;div&gt;3&lt;/div&gt;&lt;div&gt;5&lt;/div&gt;" style="rounded=0;whiteSpace=wrap;html=1;strokeColor=#FF3333;" vertex="1" parent="1">
          <mxGeometry x="1067.5" y="219" width="39" height="60" as="geometry" />
        </mxCell>
        <mxCell id="4oWYa5ZDLCP4WArpB5ea-172" value="&lt;div&gt;6&lt;/div&gt;&lt;div&gt;7&lt;/div&gt;1&lt;div&gt;8&lt;/div&gt;" style="rounded=0;whiteSpace=wrap;html=1;strokeColor=#3333FF;" vertex="1" parent="1">
          <mxGeometry x="1067.5" y="296" width="39" height="110" as="geometry" />
        </mxCell>
        <mxCell id="4oWYa5ZDLCP4WArpB5ea-173" value="&lt;span style=&quot;background-color: initial;&quot;&gt;4&lt;/span&gt;&lt;div&gt;9&lt;/div&gt;" style="rounded=0;whiteSpace=wrap;html=1;strokeColor=#FF3333;" vertex="1" parent="1">
          <mxGeometry x="1201.5" y="219" width="39" height="56" as="geometry" />
        </mxCell>
        <mxCell id="4oWYa5ZDLCP4WArpB5ea-174" value="&lt;div&gt;1&lt;/div&gt;6&lt;div&gt;7&lt;/div&gt;" style="rounded=0;whiteSpace=wrap;html=1;strokeColor=#00FF00;" vertex="1" parent="1">
          <mxGeometry x="1469.5" y="362" width="39" height="74" as="geometry" />
        </mxCell>
        <mxCell id="4oWYa5ZDLCP4WArpB5ea-175" value="" style="rounded=0;whiteSpace=wrap;html=1;" vertex="1" parent="1">
          <mxGeometry x="1568" y="163" width="110" height="159" as="geometry" />
        </mxCell>
        <mxCell id="4oWYa5ZDLCP4WArpB5ea-176" value="染色体2" style="rounded=1;whiteSpace=wrap;html=1;" vertex="1" parent="1">
          <mxGeometry x="1428" y="99" width="256" height="60" as="geometry" />
        </mxCell>
        <mxCell id="4oWYa5ZDLCP4WArpB5ea-177" value="仓库A" style="rounded=0;whiteSpace=wrap;html=1;" vertex="1" parent="1">
          <mxGeometry x="1449" y="172" width="80" height="33" as="geometry" />
        </mxCell>
        <mxCell id="4oWYa5ZDLCP4WArpB5ea-178" value="仓库B" style="rounded=0;whiteSpace=wrap;html=1;" vertex="1" parent="1">
          <mxGeometry x="1583" y="172" width="80" height="33" as="geometry" />
        </mxCell>
        <mxCell id="4oWYa5ZDLCP4WArpB5ea-179" value="5&lt;div&gt;2&lt;/div&gt;" style="rounded=0;whiteSpace=wrap;html=1;strokeColor=#FF3333;" vertex="1" parent="1">
          <mxGeometry x="1469.5" y="218" width="39" height="60" as="geometry" />
        </mxCell>
        <mxCell id="4oWYa5ZDLCP4WArpB5ea-180" value="&lt;div&gt;3&lt;/div&gt;&lt;div&gt;8&lt;/div&gt;" style="rounded=0;whiteSpace=wrap;html=1;strokeColor=#3333FF;" vertex="1" parent="1">
          <mxGeometry x="1469.5" y="295" width="39" height="52" as="geometry" />
        </mxCell>
        <mxCell id="4oWYa5ZDLCP4WArpB5ea-181" value="4" style="rounded=0;whiteSpace=wrap;html=1;strokeColor=#FF3333;" vertex="1" parent="1">
          <mxGeometry x="1603.5" y="218" width="39" height="29" as="geometry" />
        </mxCell>
        <mxCell id="4oWYa5ZDLCP4WArpB5ea-182" value="&lt;div&gt;9&lt;/div&gt;" style="rounded=0;whiteSpace=wrap;html=1;strokeColor=#0000FF;" vertex="1" parent="1">
          <mxGeometry x="1603.5" y="266" width="39" height="38" as="geometry" />
        </mxCell>
        <mxCell id="4oWYa5ZDLCP4WArpB5ea-183" value="插入6、7" style="text;html=1;align=center;verticalAlign=middle;whiteSpace=wrap;rounded=0;strokeColor=#FF0080;" vertex="1" parent="1">
          <mxGeometry x="951" y="170.5" width="60" height="30" as="geometry" />
        </mxCell>
        <mxCell id="4oWYa5ZDLCP4WArpB5ea-184" value="插入1、8" style="text;html=1;align=center;verticalAlign=middle;whiteSpace=wrap;rounded=0;strokeColor=#FF0080;" vertex="1" parent="1">
          <mxGeometry x="1361" y="179" width="60" height="30" as="geometry" />
        </mxCell>
        <mxCell id="4oWYa5ZDLCP4WArpB5ea-185" value="" style="rounded=0;whiteSpace=wrap;html=1;" vertex="1" parent="1">
          <mxGeometry x="2169" y="148" width="110" height="285" as="geometry" />
        </mxCell>
        <mxCell id="4oWYa5ZDLCP4WArpB5ea-186" value="&lt;div&gt;1&lt;/div&gt;6&lt;div&gt;7&lt;/div&gt;" style="rounded=0;whiteSpace=wrap;html=1;strokeColor=#00FF00;" vertex="1" parent="1">
          <mxGeometry x="2204.5" y="345" width="39" height="74" as="geometry" />
        </mxCell>
        <mxCell id="4oWYa5ZDLCP4WArpB5ea-187" value="" style="rounded=0;whiteSpace=wrap;html=1;" vertex="1" parent="1">
          <mxGeometry x="2303" y="146" width="110" height="159" as="geometry" />
        </mxCell>
        <mxCell id="4oWYa5ZDLCP4WArpB5ea-188" value="染色体" style="rounded=1;whiteSpace=wrap;html=1;" vertex="1" parent="1">
          <mxGeometry x="2163" y="82" width="256" height="60" as="geometry" />
        </mxCell>
        <mxCell id="4oWYa5ZDLCP4WArpB5ea-189" value="仓库A" style="rounded=0;whiteSpace=wrap;html=1;" vertex="1" parent="1">
          <mxGeometry x="2184" y="155" width="80" height="33" as="geometry" />
        </mxCell>
        <mxCell id="4oWYa5ZDLCP4WArpB5ea-190" value="仓库B" style="rounded=0;whiteSpace=wrap;html=1;" vertex="1" parent="1">
          <mxGeometry x="2318" y="155" width="80" height="33" as="geometry" />
        </mxCell>
        <mxCell id="4oWYa5ZDLCP4WArpB5ea-191" value="5&lt;div&gt;2&lt;/div&gt;" style="rounded=0;whiteSpace=wrap;html=1;strokeColor=#FF3333;" vertex="1" parent="1">
          <mxGeometry x="2204.5" y="201" width="39" height="60" as="geometry" />
        </mxCell>
        <mxCell id="4oWYa5ZDLCP4WArpB5ea-192" value="&lt;div&gt;3&lt;/div&gt;&lt;div&gt;8&lt;/div&gt;" style="rounded=0;whiteSpace=wrap;html=1;strokeColor=#3333FF;" vertex="1" parent="1">
          <mxGeometry x="2204.5" y="278" width="39" height="52" as="geometry" />
        </mxCell>
        <mxCell id="4oWYa5ZDLCP4WArpB5ea-193" value="4" style="rounded=0;whiteSpace=wrap;html=1;strokeColor=#FF3333;" vertex="1" parent="1">
          <mxGeometry x="2338.5" y="201" width="39" height="29" as="geometry" />
        </mxCell>
        <mxCell id="4oWYa5ZDLCP4WArpB5ea-194" value="&lt;div&gt;9&lt;/div&gt;" style="rounded=0;whiteSpace=wrap;html=1;strokeColor=#0000FF;" vertex="1" parent="1">
          <mxGeometry x="2338.5" y="249" width="39" height="38" as="geometry" />
        </mxCell>
        <mxCell id="4oWYa5ZDLCP4WArpB5ea-195" value="5&lt;div&gt;2&lt;/div&gt;&lt;div&gt;3&lt;/div&gt;&lt;div&gt;8&lt;/div&gt;&lt;div&gt;1&lt;/div&gt;&lt;div&gt;6&lt;/div&gt;&lt;div&gt;7&lt;/div&gt;" style="rounded=0;whiteSpace=wrap;html=1;strokeColor=#FF0080;" vertex="1" parent="1">
          <mxGeometry x="2092" y="201" width="37" height="218" as="geometry" />
        </mxCell>
        <mxCell id="4oWYa5ZDLCP4WArpB5ea-196" style="edgeStyle=none;rounded=0;orthogonalLoop=1;jettySize=auto;html=1;exitX=0;exitY=0.5;exitDx=0;exitDy=0;entryX=0.946;entryY=0.138;entryDx=0;entryDy=0;entryPerimeter=0;strokeColor=#FF0080;" edge="1" parent="1" source="4oWYa5ZDLCP4WArpB5ea-191" target="4oWYa5ZDLCP4WArpB5ea-195">
          <mxGeometry relative="1" as="geometry" />
        </mxCell>
        <mxCell id="4oWYa5ZDLCP4WArpB5ea-197" style="edgeStyle=none;rounded=0;orthogonalLoop=1;jettySize=auto;html=1;exitX=0;exitY=0.5;exitDx=0;exitDy=0;strokeColor=#FF0080;" edge="1" parent="1" source="4oWYa5ZDLCP4WArpB5ea-192">
          <mxGeometry relative="1" as="geometry">
            <mxPoint x="2129" y="304" as="targetPoint" />
          </mxGeometry>
        </mxCell>
        <mxCell id="4oWYa5ZDLCP4WArpB5ea-198" style="edgeStyle=none;rounded=0;orthogonalLoop=1;jettySize=auto;html=1;exitX=0;exitY=0.5;exitDx=0;exitDy=0;strokeColor=#FF0080;" edge="1" parent="1" source="4oWYa5ZDLCP4WArpB5ea-186">
          <mxGeometry relative="1" as="geometry">
            <mxPoint x="2131" y="382" as="targetPoint" />
          </mxGeometry>
        </mxCell>
        <mxCell id="4oWYa5ZDLCP4WArpB5ea-199" value="" style="rounded=0;whiteSpace=wrap;html=1;" vertex="1" parent="1">
          <mxGeometry x="2543" y="149" width="110" height="285" as="geometry" />
        </mxCell>
        <mxCell id="4oWYa5ZDLCP4WArpB5ea-200" value="&lt;div&gt;1&lt;/div&gt;6&lt;div&gt;7&lt;/div&gt;" style="rounded=0;whiteSpace=wrap;html=1;strokeColor=#00FF00;" vertex="1" parent="1">
          <mxGeometry x="2578.5" y="346" width="39" height="74" as="geometry" />
        </mxCell>
        <mxCell id="4oWYa5ZDLCP4WArpB5ea-201" value="" style="rounded=0;whiteSpace=wrap;html=1;" vertex="1" parent="1">
          <mxGeometry x="2677" y="147" width="110" height="159" as="geometry" />
        </mxCell>
        <mxCell id="4oWYa5ZDLCP4WArpB5ea-202" value="染色体" style="rounded=1;whiteSpace=wrap;html=1;" vertex="1" parent="1">
          <mxGeometry x="2537" y="83" width="256" height="60" as="geometry" />
        </mxCell>
        <mxCell id="4oWYa5ZDLCP4WArpB5ea-203" value="仓库A" style="rounded=0;whiteSpace=wrap;html=1;" vertex="1" parent="1">
          <mxGeometry x="2558" y="156" width="80" height="33" as="geometry" />
        </mxCell>
        <mxCell id="4oWYa5ZDLCP4WArpB5ea-204" value="仓库B" style="rounded=0;whiteSpace=wrap;html=1;" vertex="1" parent="1">
          <mxGeometry x="2692" y="156" width="80" height="33" as="geometry" />
        </mxCell>
        <mxCell id="4oWYa5ZDLCP4WArpB5ea-205" value="5&lt;div&gt;2&lt;/div&gt;" style="rounded=0;whiteSpace=wrap;html=1;strokeColor=#FF3333;" vertex="1" parent="1">
          <mxGeometry x="2578.5" y="202" width="39" height="60" as="geometry" />
        </mxCell>
        <mxCell id="4oWYa5ZDLCP4WArpB5ea-206" value="&lt;div&gt;3&lt;/div&gt;&lt;div&gt;8&lt;/div&gt;" style="rounded=0;whiteSpace=wrap;html=1;strokeColor=#3333FF;" vertex="1" parent="1">
          <mxGeometry x="2578.5" y="279" width="39" height="52" as="geometry" />
        </mxCell>
        <mxCell id="4oWYa5ZDLCP4WArpB5ea-207" value="4" style="rounded=0;whiteSpace=wrap;html=1;strokeColor=#FF3333;" vertex="1" parent="1">
          <mxGeometry x="2712.5" y="202" width="39" height="29" as="geometry" />
        </mxCell>
        <mxCell id="4oWYa5ZDLCP4WArpB5ea-208" value="&lt;div&gt;9&lt;/div&gt;" style="rounded=0;whiteSpace=wrap;html=1;strokeColor=#0000FF;" vertex="1" parent="1">
          <mxGeometry x="2712.5" y="250" width="39" height="38" as="geometry" />
        </mxCell>
        <mxCell id="4oWYa5ZDLCP4WArpB5ea-209" value="5&lt;div&gt;&lt;font color=&quot;#ff0000&quot;&gt;6&lt;/font&gt;&lt;div&gt;&lt;font color=&quot;#ff0000&quot;&gt;1&lt;/font&gt;&lt;/div&gt;&lt;div&gt;&lt;font color=&quot;#ff0000&quot;&gt;8&lt;/font&gt;&lt;/div&gt;&lt;div&gt;&lt;font color=&quot;#ff0000&quot;&gt;3&lt;/font&gt;&lt;/div&gt;&lt;div&gt;&lt;font color=&quot;#ff0000&quot;&gt;2&lt;/font&gt;&lt;br&gt;&lt;div&gt;7&lt;/div&gt;&lt;/div&gt;&lt;/div&gt;" style="rounded=0;whiteSpace=wrap;html=1;strokeColor=#FF0080;" vertex="1" parent="1">
          <mxGeometry x="2493" y="202" width="37" height="218" as="geometry" />
        </mxCell>
        <mxCell id="4oWYa5ZDLCP4WArpB5ea-213" style="edgeStyle=none;rounded=0;orthogonalLoop=1;jettySize=auto;html=1;strokeColor=#FF0080;" edge="1" parent="1">
          <mxGeometry relative="1" as="geometry">
            <mxPoint x="2459" y="281" as="sourcePoint" />
            <mxPoint x="2508" y="281" as="targetPoint" />
          </mxGeometry>
        </mxCell>
        <mxCell id="4oWYa5ZDLCP4WArpB5ea-214" style="edgeStyle=none;rounded=0;orthogonalLoop=1;jettySize=auto;html=1;strokeColor=#FF0080;" edge="1" parent="1">
          <mxGeometry relative="1" as="geometry">
            <mxPoint x="2457" y="339.5" as="sourcePoint" />
            <mxPoint x="2506" y="339.5" as="targetPoint" />
          </mxGeometry>
        </mxCell>
        <mxCell id="4oWYa5ZDLCP4WArpB5ea-215" value="" style="rounded=0;whiteSpace=wrap;html=1;" vertex="1" parent="1">
          <mxGeometry x="2110" y="600" width="110" height="285" as="geometry" />
        </mxCell>
        <mxCell id="4oWYa5ZDLCP4WArpB5ea-216" value="&lt;div&gt;&lt;span style=&quot;background-color: initial;&quot;&gt;&lt;font color=&quot;#ff0000&quot;&gt;3&lt;/font&gt;&lt;/span&gt;&lt;/div&gt;&lt;div&gt;&lt;span style=&quot;background-color: initial;&quot;&gt;&lt;font color=&quot;#ff0000&quot;&gt;2&lt;/font&gt;&lt;/span&gt;&lt;/div&gt;&lt;div&gt;&lt;span style=&quot;background-color: initial;&quot;&gt;7&lt;/span&gt;&lt;/div&gt;" style="rounded=0;whiteSpace=wrap;html=1;strokeColor=#00FF00;" vertex="1" parent="1">
          <mxGeometry x="2145.5" y="797" width="39" height="74" as="geometry" />
        </mxCell>
        <mxCell id="4oWYa5ZDLCP4WArpB5ea-217" value="" style="rounded=0;whiteSpace=wrap;html=1;" vertex="1" parent="1">
          <mxGeometry x="2244" y="598" width="110" height="159" as="geometry" />
        </mxCell>
        <mxCell id="4oWYa5ZDLCP4WArpB5ea-218" value="染色体" style="rounded=1;whiteSpace=wrap;html=1;" vertex="1" parent="1">
          <mxGeometry x="2104" y="534" width="256" height="60" as="geometry" />
        </mxCell>
        <mxCell id="4oWYa5ZDLCP4WArpB5ea-219" value="仓库A" style="rounded=0;whiteSpace=wrap;html=1;" vertex="1" parent="1">
          <mxGeometry x="2125" y="607" width="80" height="33" as="geometry" />
        </mxCell>
        <mxCell id="4oWYa5ZDLCP4WArpB5ea-220" value="仓库B" style="rounded=0;whiteSpace=wrap;html=1;" vertex="1" parent="1">
          <mxGeometry x="2259" y="607" width="80" height="33" as="geometry" />
        </mxCell>
        <mxCell id="4oWYa5ZDLCP4WArpB5ea-221" value="5&lt;div&gt;&lt;font color=&quot;#ff0022&quot;&gt;6&lt;/font&gt;&lt;/div&gt;" style="rounded=0;whiteSpace=wrap;html=1;strokeColor=#FF3333;" vertex="1" parent="1">
          <mxGeometry x="2145.5" y="653" width="39" height="60" as="geometry" />
        </mxCell>
        <mxCell id="4oWYa5ZDLCP4WArpB5ea-222" value="&lt;font color=&quot;#ff0000&quot;&gt;1&lt;/font&gt;&lt;div&gt;&lt;font color=&quot;#ff0000&quot;&gt;8&lt;/font&gt;&lt;/div&gt;" style="rounded=0;whiteSpace=wrap;html=1;strokeColor=#3333FF;" vertex="1" parent="1">
          <mxGeometry x="2145.5" y="730" width="39" height="52" as="geometry" />
        </mxCell>
        <mxCell id="4oWYa5ZDLCP4WArpB5ea-223" value="4" style="rounded=0;whiteSpace=wrap;html=1;strokeColor=#FF3333;" vertex="1" parent="1">
          <mxGeometry x="2279.5" y="653" width="39" height="29" as="geometry" />
        </mxCell>
        <mxCell id="4oWYa5ZDLCP4WArpB5ea-224" value="&lt;div&gt;9&lt;/div&gt;" style="rounded=0;whiteSpace=wrap;html=1;strokeColor=#0000FF;" vertex="1" parent="1">
          <mxGeometry x="2279.5" y="701" width="39" height="38" as="geometry" />
        </mxCell>
        <mxCell id="4oWYa5ZDLCP4WArpB5ea-225" value="5&lt;div&gt;&lt;font color=&quot;#ff0000&quot;&gt;6&lt;/font&gt;&lt;div&gt;&lt;font color=&quot;#ff0000&quot;&gt;1&lt;/font&gt;&lt;/div&gt;&lt;div&gt;&lt;font color=&quot;#ff0000&quot;&gt;8&lt;/font&gt;&lt;/div&gt;&lt;div&gt;&lt;font color=&quot;#ff0000&quot;&gt;3&lt;/font&gt;&lt;/div&gt;&lt;div&gt;&lt;font color=&quot;#ff0000&quot;&gt;2&lt;/font&gt;&lt;br&gt;&lt;div&gt;7&lt;/div&gt;&lt;/div&gt;&lt;/div&gt;" style="rounded=0;whiteSpace=wrap;html=1;strokeColor=#FF0080;" vertex="1" parent="1">
          <mxGeometry x="2060" y="653" width="37" height="218" as="geometry" />
        </mxCell>
        <mxCell id="4oWYa5ZDLCP4WArpB5ea-226" style="edgeStyle=none;rounded=0;orthogonalLoop=1;jettySize=auto;html=1;strokeColor=#FF0080;" edge="1" parent="1">
          <mxGeometry relative="1" as="geometry">
            <mxPoint x="2094" y="761.5" as="sourcePoint" />
            <mxPoint x="2143" y="761.5" as="targetPoint" />
          </mxGeometry>
        </mxCell>
        <mxCell id="4oWYa5ZDLCP4WArpB5ea-227" style="edgeStyle=none;rounded=0;orthogonalLoop=1;jettySize=auto;html=1;strokeColor=#FF0080;" edge="1" parent="1">
          <mxGeometry relative="1" as="geometry">
            <mxPoint x="2096.5" y="833" as="sourcePoint" />
            <mxPoint x="2145.5" y="833" as="targetPoint" />
          </mxGeometry>
        </mxCell>
        <mxCell id="4oWYa5ZDLCP4WArpB5ea-228" style="edgeStyle=none;rounded=0;orthogonalLoop=1;jettySize=auto;html=1;strokeColor=#FF0080;" edge="1" parent="1">
          <mxGeometry relative="1" as="geometry">
            <mxPoint x="2097" y="691" as="sourcePoint" />
            <mxPoint x="2146" y="691" as="targetPoint" />
          </mxGeometry>
        </mxCell>
        <mxCell id="4oWYa5ZDLCP4WArpB5ea-229" value="" style="rounded=0;whiteSpace=wrap;html=1;" vertex="1" parent="1">
          <mxGeometry x="2478" y="596" width="110" height="344" as="geometry" />
        </mxCell>
        <mxCell id="4oWYa5ZDLCP4WArpB5ea-230" value="&lt;div&gt;1&lt;/div&gt;6&lt;div&gt;7&lt;/div&gt;" style="rounded=0;whiteSpace=wrap;html=1;strokeColor=#00FF00;" vertex="1" parent="1">
          <mxGeometry x="2513.5" y="832" width="39" height="80" as="geometry" />
        </mxCell>
        <mxCell id="4oWYa5ZDLCP4WArpB5ea-231" value="" style="rounded=0;whiteSpace=wrap;html=1;" vertex="1" parent="1">
          <mxGeometry x="2612" y="594" width="110" height="159" as="geometry" />
        </mxCell>
        <mxCell id="4oWYa5ZDLCP4WArpB5ea-232" value="染色体" style="rounded=1;whiteSpace=wrap;html=1;" vertex="1" parent="1">
          <mxGeometry x="2472" y="530" width="256" height="60" as="geometry" />
        </mxCell>
        <mxCell id="4oWYa5ZDLCP4WArpB5ea-233" value="仓库A" style="rounded=0;whiteSpace=wrap;html=1;" vertex="1" parent="1">
          <mxGeometry x="2493" y="603" width="80" height="33" as="geometry" />
        </mxCell>
        <mxCell id="4oWYa5ZDLCP4WArpB5ea-234" value="仓库B" style="rounded=0;whiteSpace=wrap;html=1;" vertex="1" parent="1">
          <mxGeometry x="2627" y="603" width="80" height="33" as="geometry" />
        </mxCell>
        <mxCell id="4oWYa5ZDLCP4WArpB5ea-235" value="5&lt;div&gt;&lt;strike&gt;&lt;font color=&quot;#999999&quot;&gt;2&lt;/font&gt;&lt;/strike&gt;&lt;/div&gt;" style="rounded=0;whiteSpace=wrap;html=1;strokeColor=#FF3333;" vertex="1" parent="1">
          <mxGeometry x="2513.5" y="649" width="39" height="60" as="geometry" />
        </mxCell>
        <mxCell id="4oWYa5ZDLCP4WArpB5ea-236" value="&lt;div&gt;&lt;font color=&quot;#ff0000&quot;&gt;2&lt;/font&gt;&lt;/div&gt;&lt;div&gt;3&lt;/div&gt;&lt;div&gt;8&lt;/div&gt;" style="rounded=0;whiteSpace=wrap;html=1;strokeColor=#3333FF;" vertex="1" parent="1">
          <mxGeometry x="2513.5" y="726" width="39" height="87" as="geometry" />
        </mxCell>
        <mxCell id="4oWYa5ZDLCP4WArpB5ea-237" value="4" style="rounded=0;whiteSpace=wrap;html=1;strokeColor=#FF3333;" vertex="1" parent="1">
          <mxGeometry x="2647.5" y="649" width="39" height="29" as="geometry" />
        </mxCell>
        <mxCell id="4oWYa5ZDLCP4WArpB5ea-238" value="&lt;div&gt;9&lt;/div&gt;" style="rounded=0;whiteSpace=wrap;html=1;strokeColor=#0000FF;" vertex="1" parent="1">
          <mxGeometry x="2647.5" y="697" width="39" height="38" as="geometry" />
        </mxCell>
        <mxCell id="4oWYa5ZDLCP4WArpB5ea-239" style="edgeStyle=none;rounded=0;orthogonalLoop=1;jettySize=auto;html=1;strokeColor=#FF0080;" edge="1" parent="1">
          <mxGeometry relative="1" as="geometry">
            <mxPoint x="2532.5" y="695" as="sourcePoint" />
            <mxPoint x="2533" y="748" as="targetPoint" />
          </mxGeometry>
        </mxCell>
      </root>
    </mxGraphModel>
  </diagram>
</mxfile>
